<mxfile host="app.diagrams.net" modified="2020-04-25T18:06:17.008Z" agent="5.0 (Windows NT 10.0; Win64; x64) AppleWebKit/537.36 (KHTML, like Gecko) Chrome/81.0.4044.122 Safari/537.36" etag="bOcpZ__ZVfV9-nvIJeca" version="13.0.1" type="github">
  <diagram id="GUBlIdULyOdnBWYK1GoY" name="Page-1">
    <mxGraphModel dx="920" dy="562" grid="1" gridSize="10" guides="1" tooltips="1" connect="1" arrows="1" fold="1" page="1" pageScale="1" pageWidth="850" pageHeight="1100" math="0" shadow="0">
      <root>
        <mxCell id="0" />
        <mxCell id="1" parent="0" />
        <mxCell id="NF9aEH0-wCPtLvIzfFYd-19" style="edgeStyle=orthogonalEdgeStyle;rounded=0;orthogonalLoop=1;jettySize=auto;html=1;" edge="1" parent="1" source="fyo6Yz4qMfzHWVzkfuRq-4" target="NF9aEH0-wCPtLvIzfFYd-11">
          <mxGeometry relative="1" as="geometry" />
        </mxCell>
        <mxCell id="fyo6Yz4qMfzHWVzkfuRq-4" value="" style="html=1;verticalLabelPosition=bottom;align=center;labelBackgroundColor=#ffffff;verticalAlign=top;strokeWidth=2;strokeColor=#0080F0;shadow=0;dashed=0;shape=mxgraph.ios7.icons.cloud;" parent="1" vertex="1">
          <mxGeometry x="70" y="160" width="90" height="60" as="geometry" />
        </mxCell>
        <mxCell id="NF9aEH0-wCPtLvIzfFYd-15" style="edgeStyle=orthogonalEdgeStyle;rounded=0;orthogonalLoop=1;jettySize=auto;html=1;entryX=0.5;entryY=0;entryDx=0;entryDy=0;" edge="1" parent="1" source="fyo6Yz4qMfzHWVzkfuRq-6" target="fyo6Yz4qMfzHWVzkfuRq-10">
          <mxGeometry relative="1" as="geometry" />
        </mxCell>
        <mxCell id="NF9aEH0-wCPtLvIzfFYd-18" style="edgeStyle=orthogonalEdgeStyle;rounded=0;orthogonalLoop=1;jettySize=auto;html=1;" edge="1" parent="1" source="fyo6Yz4qMfzHWVzkfuRq-6" target="NF9aEH0-wCPtLvIzfFYd-11">
          <mxGeometry relative="1" as="geometry" />
        </mxCell>
        <mxCell id="fyo6Yz4qMfzHWVzkfuRq-6" value="" style="html=1;verticalLabelPosition=bottom;align=center;labelBackgroundColor=#ffffff;verticalAlign=top;strokeWidth=2;strokeColor=#0080F0;shadow=0;dashed=0;shape=mxgraph.ios7.icons.cloud;" parent="1" vertex="1">
          <mxGeometry x="70" y="300" width="90" height="60" as="geometry" />
        </mxCell>
        <mxCell id="NF9aEH0-wCPtLvIzfFYd-20" style="edgeStyle=orthogonalEdgeStyle;rounded=0;orthogonalLoop=1;jettySize=auto;html=1;" edge="1" parent="1" source="fyo6Yz4qMfzHWVzkfuRq-8" target="NF9aEH0-wCPtLvIzfFYd-11">
          <mxGeometry relative="1" as="geometry" />
        </mxCell>
        <mxCell id="fyo6Yz4qMfzHWVzkfuRq-8" value="" style="html=1;verticalLabelPosition=bottom;align=center;labelBackgroundColor=#ffffff;verticalAlign=top;strokeWidth=2;strokeColor=#0080F0;shadow=0;dashed=0;shape=mxgraph.ios7.icons.cloud;" parent="1" vertex="1">
          <mxGeometry x="70" y="500" width="90" height="60" as="geometry" />
        </mxCell>
        <mxCell id="NF9aEH0-wCPtLvIzfFYd-17" style="edgeStyle=orthogonalEdgeStyle;rounded=0;orthogonalLoop=1;jettySize=auto;html=1;" edge="1" parent="1" source="fyo6Yz4qMfzHWVzkfuRq-10" target="fyo6Yz4qMfzHWVzkfuRq-8">
          <mxGeometry relative="1" as="geometry" />
        </mxCell>
        <mxCell id="fyo6Yz4qMfzHWVzkfuRq-10" value="" style="shape=document;whiteSpace=wrap;html=1;boundedLbl=1;" parent="1" vertex="1">
          <mxGeometry x="90" y="420" width="50" height="40" as="geometry" />
        </mxCell>
        <mxCell id="fyo6Yz4qMfzHWVzkfuRq-11" value="YouTube API" style="text;html=1;strokeColor=none;fillColor=none;align=center;verticalAlign=middle;whiteSpace=wrap;rounded=0;" parent="1" vertex="1">
          <mxGeometry x="95" y="190" width="40" height="20" as="geometry" />
        </mxCell>
        <mxCell id="fyo6Yz4qMfzHWVzkfuRq-12" value="Netflix&lt;br&gt;API" style="text;html=1;strokeColor=none;fillColor=none;align=center;verticalAlign=middle;whiteSpace=wrap;rounded=0;" parent="1" vertex="1">
          <mxGeometry x="95" y="330" width="40" height="20" as="geometry" />
        </mxCell>
        <mxCell id="fyo6Yz4qMfzHWVzkfuRq-13" value="IMDB&lt;br&gt;API" style="text;html=1;strokeColor=none;fillColor=none;align=center;verticalAlign=middle;whiteSpace=wrap;rounded=0;" parent="1" vertex="1">
          <mxGeometry x="95" y="530" width="40" height="20" as="geometry" />
        </mxCell>
        <mxCell id="NF9aEH0-wCPtLvIzfFYd-6" value="" style="rounded=1;whiteSpace=wrap;html=1;strokeWidth=1;opacity=20;" vertex="1" parent="1">
          <mxGeometry x="200" y="120" width="710" height="490" as="geometry" />
        </mxCell>
        <mxCell id="NF9aEH0-wCPtLvIzfFYd-7" value="CSV&lt;br&gt;File" style="text;html=1;strokeColor=none;fillColor=none;align=center;verticalAlign=middle;whiteSpace=wrap;rounded=0;opacity=30;" vertex="1" parent="1">
          <mxGeometry x="95" y="430" width="40" height="10" as="geometry" />
        </mxCell>
        <mxCell id="NF9aEH0-wCPtLvIzfFYd-22" style="edgeStyle=orthogonalEdgeStyle;rounded=0;orthogonalLoop=1;jettySize=auto;html=1;" edge="1" parent="1" source="NF9aEH0-wCPtLvIzfFYd-11" target="NF9aEH0-wCPtLvIzfFYd-21">
          <mxGeometry relative="1" as="geometry" />
        </mxCell>
        <mxCell id="NF9aEH0-wCPtLvIzfFYd-11" value="" style="dashed=1;outlineConnect=0;html=1;align=center;labelPosition=center;verticalLabelPosition=bottom;verticalAlign=top;shape=mxgraph.weblogos.mongodb;strokeWidth=1;gradientColor=none;perimeterSpacing=6;opacity=90;" vertex="1" parent="1">
          <mxGeometry x="260" y="258.45" width="60" height="143.1" as="geometry" />
        </mxCell>
        <mxCell id="NF9aEH0-wCPtLvIzfFYd-12" value="MongoDB" style="text;html=1;strokeColor=none;fillColor=none;align=center;verticalAlign=middle;whiteSpace=wrap;rounded=0;" vertex="1" parent="1">
          <mxGeometry x="280" y="410" width="90" height="20" as="geometry" />
        </mxCell>
        <mxCell id="NF9aEH0-wCPtLvIzfFYd-25" style="edgeStyle=orthogonalEdgeStyle;rounded=0;orthogonalLoop=1;jettySize=auto;html=1;" edge="1" parent="1" source="NF9aEH0-wCPtLvIzfFYd-21" target="NF9aEH0-wCPtLvIzfFYd-24">
          <mxGeometry relative="1" as="geometry" />
        </mxCell>
        <mxCell id="NF9aEH0-wCPtLvIzfFYd-21" value="" style="shape=step;perimeter=stepPerimeter;whiteSpace=wrap;html=1;fixedSize=1;strokeWidth=1;gradientColor=none;" vertex="1" parent="1">
          <mxGeometry x="350" y="290" width="120" height="80" as="geometry" />
        </mxCell>
        <mxCell id="NF9aEH0-wCPtLvIzfFYd-23" value="Preprocessing for&lt;br&gt;PostgreSQL" style="text;html=1;strokeColor=none;fillColor=none;align=center;verticalAlign=middle;whiteSpace=wrap;rounded=0;" vertex="1" parent="1">
          <mxGeometry x="390" y="320" width="40" height="20" as="geometry" />
        </mxCell>
        <mxCell id="NF9aEH0-wCPtLvIzfFYd-29" style="edgeStyle=orthogonalEdgeStyle;rounded=0;orthogonalLoop=1;jettySize=auto;html=1;entryX=0;entryY=0.5;entryDx=0;entryDy=0;" edge="1" parent="1" source="NF9aEH0-wCPtLvIzfFYd-24" target="NF9aEH0-wCPtLvIzfFYd-26">
          <mxGeometry relative="1" as="geometry" />
        </mxCell>
        <mxCell id="NF9aEH0-wCPtLvIzfFYd-24" value="" style="outlineConnect=0;fontColor=#232F3E;gradientColor=none;fillColor=#3334B9;strokeColor=none;dashed=0;verticalLabelPosition=bottom;verticalAlign=top;align=center;html=1;fontSize=12;fontStyle=0;aspect=fixed;pointerEvents=1;shape=mxgraph.aws4.rds_postgresql_instance;" vertex="1" parent="1">
          <mxGeometry x="500" y="280" width="100" height="100" as="geometry" />
        </mxCell>
        <mxCell id="NF9aEH0-wCPtLvIzfFYd-31" style="edgeStyle=orthogonalEdgeStyle;rounded=0;orthogonalLoop=1;jettySize=auto;html=1;entryX=0;entryY=0.5;entryDx=0;entryDy=0;" edge="1" parent="1" source="NF9aEH0-wCPtLvIzfFYd-26" target="NF9aEH0-wCPtLvIzfFYd-30">
          <mxGeometry relative="1" as="geometry" />
        </mxCell>
        <mxCell id="NF9aEH0-wCPtLvIzfFYd-26" value="" style="shape=step;perimeter=stepPerimeter;whiteSpace=wrap;html=1;fixedSize=1;strokeWidth=1;gradientColor=none;" vertex="1" parent="1">
          <mxGeometry x="620" y="290" width="120" height="80" as="geometry" />
        </mxCell>
        <mxCell id="NF9aEH0-wCPtLvIzfFYd-27" value="Preprocessing&lt;br&gt;For&lt;br&gt;Visualization" style="text;html=1;strokeColor=none;fillColor=none;align=center;verticalAlign=middle;whiteSpace=wrap;rounded=0;" vertex="1" parent="1">
          <mxGeometry x="660" y="320" width="40" height="20" as="geometry" />
        </mxCell>
        <mxCell id="NF9aEH0-wCPtLvIzfFYd-30" value="" style="aspect=fixed;perimeter=ellipsePerimeter;html=1;align=center;shadow=0;dashed=0;fontColor=#4277BB;labelBackgroundColor=#ffffff;fontSize=12;spacingTop=3;image;image=img/lib/ibm/applications/visualization.svg;strokeWidth=1;gradientColor=none;" vertex="1" parent="1">
          <mxGeometry x="770" y="280" width="100" height="100" as="geometry" />
        </mxCell>
        <mxCell id="NF9aEH0-wCPtLvIzfFYd-32" value="Visualization" style="text;html=1;strokeColor=none;fillColor=none;align=center;verticalAlign=middle;whiteSpace=wrap;rounded=0;" vertex="1" parent="1">
          <mxGeometry x="775" y="390" width="90" height="30" as="geometry" />
        </mxCell>
        <mxCell id="NF9aEH0-wCPtLvIzfFYd-33" value="iPython Ecosystem" style="text;html=1;strokeColor=none;fillColor=none;align=center;verticalAlign=middle;whiteSpace=wrap;rounded=0;" vertex="1" parent="1">
          <mxGeometry x="450" y="121" width="180" height="20" as="geometry" />
        </mxCell>
        <mxCell id="NF9aEH0-wCPtLvIzfFYd-37" style="edgeStyle=orthogonalEdgeStyle;curved=1;rounded=0;comic=0;jumpStyle=arc;orthogonalLoop=1;jettySize=auto;html=1;shadow=1;dashed=1;opacity=20;" edge="1" parent="1" source="NF9aEH0-wCPtLvIzfFYd-34" target="NF9aEH0-wCPtLvIzfFYd-24">
          <mxGeometry relative="1" as="geometry" />
        </mxCell>
        <mxCell id="NF9aEH0-wCPtLvIzfFYd-38" style="edgeStyle=orthogonalEdgeStyle;curved=1;rounded=0;comic=0;jumpStyle=arc;orthogonalLoop=1;jettySize=auto;html=1;shadow=1;dashed=1;opacity=20;" edge="1" parent="1" source="NF9aEH0-wCPtLvIzfFYd-34" target="NF9aEH0-wCPtLvIzfFYd-26">
          <mxGeometry relative="1" as="geometry" />
        </mxCell>
        <mxCell id="NF9aEH0-wCPtLvIzfFYd-39" style="edgeStyle=orthogonalEdgeStyle;curved=1;rounded=0;comic=0;jumpStyle=arc;orthogonalLoop=1;jettySize=auto;html=1;shadow=1;dashed=1;opacity=20;" edge="1" parent="1" source="NF9aEH0-wCPtLvIzfFYd-34" target="NF9aEH0-wCPtLvIzfFYd-30">
          <mxGeometry relative="1" as="geometry" />
        </mxCell>
        <mxCell id="NF9aEH0-wCPtLvIzfFYd-52" style="edgeStyle=orthogonalEdgeStyle;curved=1;rounded=0;comic=0;jumpStyle=arc;orthogonalLoop=1;jettySize=auto;html=1;shadow=1;dashed=1;opacity=20;" edge="1" parent="1" source="NF9aEH0-wCPtLvIzfFYd-34" target="NF9aEH0-wCPtLvIzfFYd-21">
          <mxGeometry relative="1" as="geometry" />
        </mxCell>
        <mxCell id="NF9aEH0-wCPtLvIzfFYd-53" style="edgeStyle=orthogonalEdgeStyle;curved=1;rounded=0;comic=0;jumpStyle=arc;orthogonalLoop=1;jettySize=auto;html=1;shadow=1;dashed=1;opacity=20;" edge="1" parent="1" source="NF9aEH0-wCPtLvIzfFYd-34" target="NF9aEH0-wCPtLvIzfFYd-11">
          <mxGeometry relative="1" as="geometry" />
        </mxCell>
        <mxCell id="NF9aEH0-wCPtLvIzfFYd-34" value="" style="shape=image;html=1;verticalAlign=top;verticalLabelPosition=bottom;labelBackgroundColor=#ffffff;imageAspect=0;aspect=fixed;image=https://cdn1.iconfinder.com/data/icons/picons-social/57/github-128.png;strokeWidth=1;gradientColor=none;" vertex="1" parent="1">
          <mxGeometry x="491" y="420" width="118" height="118" as="geometry" />
        </mxCell>
        <mxCell id="NF9aEH0-wCPtLvIzfFYd-41" style="edgeStyle=orthogonalEdgeStyle;curved=1;rounded=0;comic=0;jumpStyle=arc;orthogonalLoop=1;jettySize=auto;html=1;shadow=1;dashed=1;opacity=20;" edge="1" parent="1" source="NF9aEH0-wCPtLvIzfFYd-40" target="NF9aEH0-wCPtLvIzfFYd-11">
          <mxGeometry relative="1" as="geometry" />
        </mxCell>
        <mxCell id="NF9aEH0-wCPtLvIzfFYd-43" style="edgeStyle=orthogonalEdgeStyle;curved=1;rounded=0;comic=0;jumpStyle=arc;orthogonalLoop=1;jettySize=auto;html=1;shadow=1;dashed=1;opacity=20;" edge="1" parent="1" source="NF9aEH0-wCPtLvIzfFYd-40" target="NF9aEH0-wCPtLvIzfFYd-24">
          <mxGeometry relative="1" as="geometry" />
        </mxCell>
        <mxCell id="NF9aEH0-wCPtLvIzfFYd-44" style="edgeStyle=orthogonalEdgeStyle;curved=1;rounded=0;comic=0;jumpStyle=arc;orthogonalLoop=1;jettySize=auto;html=1;entryX=0.5;entryY=0;entryDx=0;entryDy=0;shadow=1;dashed=1;opacity=20;" edge="1" parent="1" source="NF9aEH0-wCPtLvIzfFYd-40" target="NF9aEH0-wCPtLvIzfFYd-26">
          <mxGeometry relative="1" as="geometry" />
        </mxCell>
        <mxCell id="NF9aEH0-wCPtLvIzfFYd-45" style="edgeStyle=orthogonalEdgeStyle;curved=1;rounded=0;comic=0;jumpStyle=arc;orthogonalLoop=1;jettySize=auto;html=1;shadow=1;dashed=1;opacity=20;" edge="1" parent="1" source="NF9aEH0-wCPtLvIzfFYd-40" target="NF9aEH0-wCPtLvIzfFYd-30">
          <mxGeometry relative="1" as="geometry" />
        </mxCell>
        <mxCell id="NF9aEH0-wCPtLvIzfFYd-46" style="edgeStyle=orthogonalEdgeStyle;curved=1;rounded=0;comic=0;jumpStyle=arc;orthogonalLoop=1;jettySize=auto;html=1;entryX=0.5;entryY=0;entryDx=0;entryDy=0;shadow=1;dashed=1;opacity=20;" edge="1" parent="1" source="NF9aEH0-wCPtLvIzfFYd-40" target="NF9aEH0-wCPtLvIzfFYd-21">
          <mxGeometry relative="1" as="geometry" />
        </mxCell>
        <mxCell id="NF9aEH0-wCPtLvIzfFYd-40" value="" style="shape=image;html=1;verticalAlign=top;verticalLabelPosition=bottom;labelBackgroundColor=#ffffff;imageAspect=0;aspect=fixed;image=https://cdn4.iconfinder.com/data/icons/logos-and-brands/512/267_Python_logo-128.png;rounded=1;dashed=1;strokeWidth=1;gradientColor=none;" vertex="1" parent="1">
          <mxGeometry x="501" y="141" width="98" height="98" as="geometry" />
        </mxCell>
        <mxCell id="NF9aEH0-wCPtLvIzfFYd-54" value="GitHub" style="text;html=1;strokeColor=none;fillColor=none;align=center;verticalAlign=middle;whiteSpace=wrap;rounded=0;dashed=1;opacity=20;" vertex="1" parent="1">
          <mxGeometry x="530" y="530" width="40" height="20" as="geometry" />
        </mxCell>
      </root>
    </mxGraphModel>
  </diagram>
</mxfile>
